<svg version="1.1" xmlns="http://www.w3.org/2000/svg" style="display: block;" viewBox="500 580 1050 900">
<path transform="translate(0,0)" fill="rgb(0, 0, 0)" d="M 1022.85 593.549 C 1025.93 594.21 1027.9 596.131 1030.18 598.181 C 1043.63 610.274 1056.1 623.839 1068.81 636.715 A 7338.79 7338.79 0 0 0 1155.02 723.495 C 1167.88 736.06 1180.61 749.087 1194.24 760.81 A 3021.57 3021.57 0 0 0 1234.82 722.038 C 1271.29 720.107 1309.61 721.821 1346.31 721.841 A 13238.7 13238.7 0 0 1 1530.17 722.011 C 1513.74 741.44 1494.93 758.556 1477.01 776.564 C 1453.12 800.577 1429.95 825.355 1406.24 849.556 C 1384.56 871.679 1361.88 893.356 1342.11 917.22 C 1379.48 956.167 1419.01 993.303 1455.81 1032.73 C 1437.45 1053.28 1416.73 1072.24 1397.18 1091.66 A 10904.3 10904.3 0 0 1 1292.01 1195.83 L 1052.39 1433.1 C 1043.06 1441.48 1034.21 1450.6 1025.21 1459.36 C 985.788 1425.44 945.928 1383.52 908.843 1346.51 L 762.324 1201.69 A 14030.4 14030.4 0 0 0 655.483 1096.07 C 634.511 1075.52 611.673 1055.35 592.621 1033.03 C 610.519 1013.38 632.352 996.929 649.102 976.446 C 649.656 936.537 649.048 896.562 649.069 856.645 C 637.877 843.257 624.795 831.132 612.435 818.824 C 580.075 786.598 545.543 755.203 515.296 721.03 L 814.14 721.636 C 829.17 733.556 840.618 750.222 855.829 762.229 C 870.157 749.93 883.214 735.669 896.447 722.215 L 976.999 639.686 C 992.046 624.246 1006.75 607.859 1022.85 593.549 z M 856.54 803.128 C 837.795 786.043 821.513 764.142 800.971 749.403 C 729.412 750.503 657.741 749.998 586.17 750.192 C 598.136 766.07 613.874 780.029 628.014 793.988 C 645.044 810.801 661.812 827.9 679.068 844.48 C 680.349 872.932 679.479 901.72 679.453 930.209 C 679.435 949.014 680.67 968.832 679.132 987.529 C 664.806 1003.22 648.781 1017.25 634.549 1033.05 C 642.735 1045.15 660.731 1060.17 671.671 1071.05 A 9562.98 9562.98 0 0 0 768.273 1166.29 A 12476.4 12476.4 0 0 0 941.391 1336.96 L 994.168 1388.84 C 1003.89 1398.4 1013.28 1408.78 1023.87 1417.38 C 1036.31 1406.77 1047.89 1395.09 1059.63 1383.72 L 1414.99 1032.55 A 7574.96 7574.96 0 0 1 1338.69 955.542 C 1325.93 942.54 1311.7 929.907 1300.53 915.582 C 1331.7 881.455 1365.29 849.362 1397.76 816.468 C 1419.31 794.642 1440.01 771.17 1462.5 750.366 C 1443.03 752.516 1422.3 750.559 1402.68 750.343 L 1309.24 750.181 C 1289.44 750.165 1269.29 749.411 1249.54 750.644 C 1229.61 766.102 1213.44 786.135 1194.83 803.102 C 1173.03 784.039 1030.22 635.924 1024.25 633.74 C 1002.87 652.577 983.07 673.519 963.257 693.985 L 899.262 759.799 C 885.673 773.778 872.043 791.499 856.54 803.128 z"/>
<path transform="translate(0,0)" fill="rgb(181, 146, 226)" d="M 1046.12 725.706 C 1055.36 733.428 1063.41 743.296 1071.98 751.846 C 1082.8 762.635 1095.15 773.037 1104.83 784.819 C 1107.29 844.307 1104.71 904.192 1106.3 963.719 C 1164.06 912.825 1215.42 854.736 1270.13 800.695 C 1295.62 801.888 1321.46 801.095 1346.99 801.066 C 1333.98 815.461 1319.64 828.736 1305.97 842.503 C 1281.7 866.946 1257.52 891.609 1233.72 916.505 C 1243.6 928.39 1255.74 939.083 1266.77 949.943 C 1294.07 976.811 1322.83 1003.25 1348.26 1031.9 C 1341.36 1039.35 1333.3 1046.03 1325.89 1053.01 A 2377.1 2377.1 0 0 0 1289.89 1087.94 L 1124.29 1250.21 A 4072.42 4072.42 0 0 0 1062.79 1312.11 C 1052.05 1323.25 1035.91 1342.83 1023.73 1351.11 A 23881 23881 0 0 1 849.575 1178.5 C 800.367 1130.17 749.666 1083.21 701.937 1033.41 L 728.04 1008.72 C 726.676 939.342 727.499 869.589 728.122 800.188 C 746.07 799.954 764.24 799.373 782.157 800.423 C 822.455 831.21 837.35 874.768 862.169 916.519 C 878.794 884.303 897.945 854.465 917.759 824.171 C 927.138 809.832 936.088 794.492 947.04 781.315 C 954.621 772.195 963.57 764.024 971.908 755.6 C 981.636 745.772 991.027 735.636 1001 726.053 L 1000.99 789.253 L 1001.49 1064.78 L 1001.85 1139 C 1001.83 1152.85 1001.01 1166.83 1001.89 1180.64 C 983.02 1160.52 962.734 1141.76 944.236 1121.26 C 942.116 1075.34 944.187 1028.62 944.145 982.639 C 944.128 964.2 944.217 945.739 943.907 927.304 C 943.609 909.595 942.804 892.3 944.158 874.593 C 934.635 896.044 922.764 916.857 912.2 937.841 A 6721.54 6721.54 0 0 0 863.069 1038.26 C 851.476 1022.17 843.143 1003.43 834.446 985.654 C 816.275 948.517 799.564 909.317 778.693 873.626 C 779.537 890.228 778.844 906.96 778.898 923.589 L 778.977 1027.94 C 794.426 1045.01 811.304 1060.98 827.629 1077.21 L 922.776 1171.27 A 7085.78 7085.78 0 0 0 990.562 1239.15 C 1001.21 1249.69 1012.46 1263.09 1024.95 1271.29 C 1072 1225.57 1117.94 1178.59 1164.32 1132.18 C 1198.61 1097.87 1233.84 1064.2 1267.17 1028.97 C 1259 1021.6 1251.49 1013.24 1243.74 1005.4 A 2543.74 2543.74 0 0 0 1196.11 958.463 C 1179.55 973.968 1163.78 990.582 1147.76 1006.66 C 1133.87 1020.6 1117.54 1035.07 1106.06 1051.01 L 1106.01 1116.22 C 1090.64 1135.78 1065.1 1163.25 1046.09 1178.76 C 1044.75 1160.56 1045.91 1141.78 1046.02 1123.5 L 1046.13 1030.61 L 1046.12 725.706 z"/>
</svg>